<svg xmlns="http://www.w3.org/2000/svg" width="1200" height="1500" viewBox="0 0 1200 1500"><rect width="1200" height="1500" fill="#14171a"/><path d="M0 0H1200V34H0Z" fill="#a3262a"/><g stroke="#252a30" stroke-width="1" opacity=".8"><path d="M0 100H1200M0 200H1200M0 300H1200M0 400H1200M0 500H1200M0 600H1200M0 700H1200M0 800H1200M0 900H1200M0 1000H1200M0 1100H1200M0 1200H1200M0 1300H1200M0 1400H1200"/><path d="M100 0V1500M200 0V1500M300 0V1500M400 0V1500M500 0V1500M600 0V1500M700 0V1500M800 0V1500M900 0V1500M1000 0V1500M1100 0V1500"/></g><text x="70" y="95" fill="#aaa49a" font-family="monospace" font-size="28">UNIDAD DE ANÁLISIS DIGITAL</text><text x="600" y="410" text-anchor="middle" fill="#f5f5f2" font-family="Arial, sans-serif" font-size="140" font-weight="700">CASO 404</text><text x="600" y="500" text-anchor="middle" fill="#ebe3d3" font-family="Arial, sans-serif" font-size="56" font-weight="700">LA ÚLTIMA CONEXIÓN</text><path d="M170 545H1030" stroke="#a3262a" stroke-width="7"/><text x="600" y="630" text-anchor="middle" fill="#f5f5f2" font-family="Arial, sans-serif" font-size="45" font-weight="700">RESUELVE EL CRIMEN.</text><text x="600" y="690" text-anchor="middle" fill="#f5f5f2" font-family="Arial, sans-serif" font-size="45" font-weight="700">CRUZA LAS PRUEBAS.</text><text x="600" y="760" text-anchor="middle" fill="#ebe3d3" font-family="Arial, sans-serif" font-size="34">1-6 jugadores | 60-90 min | En español</text><rect x="150" y="835" width="900" height="330" rx="24" fill="#191d21" stroke="#666d73" stroke-width="3"/><g fill="#f5f5f2" font-family="Arial, sans-serif" font-size="38"><circle cx="210" cy="915" r="10" fill="#a3262a"/><text x="250" y="928">Expediente policial</text><circle cx="210" cy="985" r="10" fill="#a3262a"/><text x="250" y="998">Entrevistas y registros</text><circle cx="210" cy="1055" r="10" fill="#a3262a"/><text x="250" y="1068">3 bloques de pistas</text><circle cx="210" cy="1125" r="10" fill="#a3262a"/><text x="250" y="1138">Guía y solución separada</text></g><rect x="330" y="1270" width="540" height="100" rx="18" fill="none" stroke="#a3262a" stroke-width="5"/><text x="600" y="1334" text-anchor="middle" fill="#c8383d" font-family="Arial, sans-serif" font-size="38" font-weight="700">JUEGO DIGITAL EN PDF</text></svg>